<?xml version="1.0" encoding="UTF-8" standalone="no"?>
<svg
   xmlns:dc="http://purl.org/dc/elements/1.1/"
   xmlns:cc="http://creativecommons.org/ns#"
   xmlns:rdf="http://www.w3.org/1999/02/22-rdf-syntax-ns#"
   xmlns:svg="http://www.w3.org/2000/svg"
   xmlns="http://www.w3.org/2000/svg"
   xmlns:sodipodi="http://sodipodi.sourceforge.net/DTD/sodipodi-0.dtd"
   xmlns:inkscape="http://www.inkscape.org/namespaces/inkscape"
   id="svg4574"
   width="14"
   height="14"
   viewBox="0 0 14 14"
   version="1.1"
   sodipodi:docname="shower-14.svg"
   inkscape:version="0.92.4 (5da689c313, 2019-01-14)">
  <sodipodi:namedview
     pagecolor="#ffffff"
     bordercolor="#666666"
     borderopacity="1"
     objecttolerance="10"
     gridtolerance="10"
     guidetolerance="10"
     inkscape:pageopacity="0"
     inkscape:pageshadow="2"
     inkscape:window-width="1366"
     inkscape:window-height="703"
     id="namedview20"
     showgrid="false"
     inkscape:zoom="23.8396"
     inkscape:cx="1.3020606"
     inkscape:cy="9.7289642"
     inkscape:window-x="0"
     inkscape:window-y="0"
     inkscape:window-maximized="1"
     inkscape:current-layer="svg4574" />
  <defs
     id="defs4578" />
  <metadata
     id="metadata4542">
    <rdf:RDF>
      <cc:Work
         rdf:about="">
        <dc:format>image/svg+xml</dc:format>
        <dc:type
           rdf:resource="http://purl.org/dc/dcmitype/StillImage" />
        <dc:title />
      </cc:Work>
    </rdf:RDF>
  </metadata>
  <rect
     width="14"
     height="14"
     x="0"
     y="0"
     id="canvas"
     style="fill:none;stroke:none;visibility:hidden" />
  <path
     style="fill:#734a08;fill-rule:evenodd;paint-order:stroke fill markers"
     d="m 7.1191406,-0.00976563 c -0.046549,-1.7295e-4 -0.086729,0.019109 -0.1308594,0.02734376 0,0 -0.00195,-0.0019531 -0.00195,-0.0019531 C 6.5962404,-0.05766689 6.2236825,0.19780287 6.1503906,0.58789062 L 5.8476562,2.1972656 C 4.6015382,2.2394181 3.5074039,3.1337463 3.2675781,4.4101562 L 8.6171875,5.4160156 C 8.8403632,4.2282645 8.2478008,3.0875606 7.2421875,2.5371094 L 7.4511719,1.4257812 10.652344,1.4375 l 3.339844,0.023437 0.0039,-0.70898438 c 2.76e-4,-0.006876 0.0038,-0.0126061 0.0039,-0.0195312 8.3e-5,-0.006953 -0.0038,-0.0126264 -0.0039,-0.0195313 L 14,0.02734375 13.337891,0.0234375 c -0.01583,-0.0010959 -0.02881,-0.0097057 -0.04492,-0.0097656 L 10.652344,0.00390625 10.136719,0 V 0.00195313 Z M 3.0019531,6.0195312 a 0.85549003,0.85549003 0 0 0 -0.8535156,0.6972657 0.85549003,0.85549003 0 0 0 0.6816406,0.9980469 0.85549003,0.85549003 0 0 0 1,-0.6816407 0.85549003,0.85549003 0 0 0 -0.6835937,-1 0.85549003,0.85549003 0 0 0 -0.1445313,-0.013672 z M 7.9785156,6.9179688 A 0.85549003,0.85549003 0 0 0 7.125,7.6152344 0.85549003,0.85549003 0 0 0 7.8085938,8.6132812 0.85549003,0.85549003 0 0 0 8.8066406,7.9296875 0.85549003,0.85549003 0 0 0 8.125,6.9316406 0.85549003,0.85549003 0 0 0 7.9785156,6.9179688 Z m -2.6171875,0.044922 a 0.85549003,0.85549003 0 0 0 -0.8535156,0.6972656 0.85549003,0.85549003 0 0 0 0.6816406,1 0.85549003,0.85549003 0 0 0 1,-0.6835937 A 0.85549003,0.85549003 0 0 0 5.5058594,6.9785156 0.85549003,0.85549003 0 0 0 5.3613281,6.9628906 Z m -3.4375,1.5 a 0.85549003,0.85549003 0 0 0 -0.8535156,0.6992188 0.85549003,0.85549003 0 0 0 0.6816406,0.9980466 0.85549003,0.85549003 0 0 0 1,-0.6835935 A 0.85549003,0.85549003 0 0 0 2.0683594,8.4785156 0.85549003,0.85549003 0 0 0 1.9238281,8.4628906 Z m 2.9726563,1.109375 A 0.85549003,0.85549003 0 0 0 4.0429688,10.269531 0.85549003,0.85549003 0 0 0 4.7265625,11.267578 0.85549003,0.85549003 0 0 0 5.7246094,10.585938 0.85549003,0.85549003 0 0 0 5.0429688,9.5859375 0.85549003,0.85549003 0 0 0 4.8964844,9.5722656 Z m 3.0429687,0.011719 a 0.85549003,0.85549003 0 0 0 -0.8535156,0.6972656 0.85549003,0.85549003 0 0 0 0.6816406,1 A 0.85549003,0.85549003 0 0 0 8.765625,10.597656 0.85549003,0.85549003 0 0 0 8.0839844,9.5996094 0.85549003,0.85549003 0 0 0 7.9394531,9.5839844 Z M 0.86914062,10.923828 A 0.85549003,0.85549003 0 0 0 0.015625,11.621094 0.85549003,0.85549003 0 0 0 0.69726562,12.619141 0.85549003,0.85549003 0 0 0 1.6972656,11.9375 a 0.85549003,0.85549003 0 0 0 -0.6835937,-1 0.85549003,0.85549003 0 0 0 -0.14453128,-0.01367 z m 3.47656248,1.259766 a 0.85549003,0.85549003 0 0 0 -0.8535156,0.697265 0.85549003,0.85549003 0 0 0 0.6816406,1 0.85549003,0.85549003 0 0 0 1,-0.683593 0.85549003,0.85549003 0 0 0 -0.6835937,-0.998047 0.85549003,0.85549003 0 0 0 -0.1445313,-0.01563 z M 8,12.289062 a 0.85549003,0.85549003 0 0 0 -0.8535156,0.697266 0.85549003,0.85549003 0 0 0 0.6835937,0.998047 0.85549003,0.85549003 0 0 0 0.9980469,-0.681641 0.85549003,0.85549003 0 0 0 -0.6816406,-1 A 0.85549003,0.85549003 0 0 0 8,12.289062 Z"
     id="shower"
     inkscape:connector-curvature="0" />
</svg>
